IKResults
version=1
nRows=20
nColumns=34
inDegrees=yes

Units are S.I. units (second, meters, Newtons, ...)
If the header above contains a line with 'inDegrees', this indicates whether rotational values are in degrees (yes) or radians (no).

endheader
time	pelvis_tilt	pelvis_list	pelvis_rotation	pelvis_tx	pelvis_ty	pelvis_tz	hip_flexion_r	hip_adduction_r	hip_rotation_r	knee_angle_r	ankle_angle_r	subtalar_angle_r	mtp_angle_r	hip_flexion_l	hip_adduction_l	hip_rotation_l	knee_angle_l	socket_flexion	socket_adduction	socket_rotation	socket_tx	socket_ty	socket_tz	pros_ankle_rx	pros_ankle_ry	pros_ankle_rz	pros_ankle_tx	pros_ankle_ty	pros_ankle_tz	foot_flex	lumbar_extension	lumbar_bending	lumbar_rotation
      0.90314000	      1.06842631	     -6.14707638	      3.76923623	      0.42406664	      1.04280003	      0.37858610	     10.80387127	      8.06686320	     -7.29192126	    -20.04592428	     10.06263370	      9.83727645	     11.32698203	     16.12580042	    -10.44658040	     -3.15378718	    -72.06107858	     -5.13706079	      1.41024407	     -7.98873394	      0.00000000	     -0.00710058	      0.00000000	      0.00000000	      0.00000000	      0.00000000	      0.00000000	      0.00000000	      0.00000000	     -1.44688664	    -18.65985740	      2.53883922	      1.84428276
      0.90732000	      1.00896240	     -6.00191576	      3.72035517	      0.42924645	      1.04387399	      0.37861776	     10.35857336	      7.94575805	     -7.25247846	    -19.73105189	     10.10025401	      9.93997430	     11.34006560	     16.74341373	    -10.20825841	     -2.99976687	    -71.77641228	     -5.22649835	      1.43391568	     -7.53865595	      0.00000000	     -0.00684178	      0.00000000	      0.00000000	      0.00000000	      0.00000000	      0.00000000	      0.00000000	      0.00000000	     -1.44942993	    -18.68592566	      2.40874259	      1.87548699
      0.91150000	      0.96733085	     -5.85731948	      3.73191629	      0.43446122	      1.04504199	      0.37863687	      9.80515997	      7.83077484	     -7.26150316	    -19.22660465	     10.09258047	     10.09558340	     11.35910792	     17.40277776	     -9.97550107	     -2.83932297	    -71.49518722	     -5.26351991	      1.41995194	     -7.13040327	      0.00000000	     -0.00614113	      0.00000000	      0.00000000	      0.00000000	      0.00000000	      0.00000000	      0.00000000	      0.00000000	     -1.46170252	    -18.59349951	      2.11461657	      1.89533314
      0.91568000	      0.90458666	     -5.72462423	      3.71237009	      0.43972395	      1.04612075	      0.37863089	      9.30385372	      7.71984970	     -7.26543437	    -18.79511819	     10.06157624	     10.24326176	     11.38262405	     18.01640779	     -9.74544519	     -2.68363289	    -71.13915200	     -5.34223421	      1.42441538	     -6.69203356	      0.00000000	     -0.00566146	      0.00000000	      0.00000000	      0.00000000	      0.00000000	      0.00000000	      0.00000000	      0.00000000	     -1.47039776	    -18.54383475	      1.91270816	      1.91494513
      0.91986000	      0.85114092	     -5.59876516	      3.68201250	      0.44498296	      1.04719521	      0.37862325	      8.79134385	      7.61340710	     -7.28038091	    -18.34509759	     10.00938957	     10.40036581	     11.41451430	     18.60046672	     -9.52239348	     -2.54031169	    -70.73185665	     -5.41964439	      1.42616493	     -6.27715867	      0.00000000	     -0.00516524	      0.00000000	      0.00000000	      0.00000000	      0.00000000	      0.00000000	      0.00000000	      0.00000000	     -1.47368921	    -18.47556876	      1.70447573	      1.93315866
      0.92404000	      0.81171354	     -5.47633614	      3.64698834	      0.45030417	      1.04827442	      0.37863419	      8.24252051	      7.51123193	     -7.32124885	    -17.85893098	      9.88110202	     10.58939027	     11.47521392	     19.11745086	     -9.30734726	     -2.41300143	    -70.22568888	     -5.48611645	      1.45557975	     -5.87972967	      0.00000000	     -0.00484441	      0.00000000	      0.00000000	      0.00000000	      0.00000000	      0.00000000	      0.00000000	      0.00000000	     -1.46975656	    -18.36290826	      1.50139136	      1.94316827
      0.92822000	      0.75682337	     -5.36225309	      3.59733753	      0.45529813	      1.04926100	      0.37862209	      7.80530563	      7.41511171	     -7.28174596	    -17.53040541	      9.89782456	     10.71037117	     11.51259937	     19.69909196	     -9.09431764	     -2.28043175	    -69.76688299	     -5.57299157	      1.43667596	     -5.45247150	      0.00000000	     -0.00429254	      0.00000000	      0.00000000	      0.00000000	      0.00000000	      0.00000000	      0.00000000	      0.00000000	     -1.49389864	    -18.42001529	      1.36911106	      1.98424326
      0.93240000	      0.70109113	     -5.25408395	      3.55789023	      0.46041920	      1.05020778	      0.37861510	      7.32481122	      7.33191254	     -7.25837252	    -17.13116315	      9.88602569	     10.85269984	     11.54706370	     20.26293849	     -8.89786231	     -2.16724693	    -69.27051474	     -5.68062588	      1.43040732	     -5.04602621	      0.00000000	     -0.00368745	      0.00000000	      0.00000000	      0.00000000	      0.00000000	      0.00000000	      0.00000000	      0.00000000	     -1.50300360	    -18.39604113	      1.18395229	      2.02985342
      0.93659000	      0.65194927	     -5.14694013	      3.50352125	      0.46575650	      1.05122202	      0.37864056	      6.78046877	      7.24811010	     -7.26997394	    -16.62259389	      9.76184642	     11.04608138	     11.60234667	     20.73330506	     -8.70955984	     -2.09412248	    -68.64307878	     -5.76173821	      1.42423143	     -4.68840848	      0.00000000	     -0.00323864	      0.00000000	      0.00000000	      0.00000000	      0.00000000	      0.00000000	      0.00000000	      0.00000000	     -1.50068791	    -18.26916244	      0.96409190	      2.08286154
      0.94077000	      0.59989121	     -5.05625280	      3.42629219	      0.47087041	      1.05211315	      0.37864873	      6.31647225	      7.17382080	     -7.24284836	    -16.26472616	      9.69437377	     11.19757651	     11.65432356	     21.22747862	     -8.53470624	     -2.00573723	    -68.02736487	     -5.86562916	      1.41749563	     -4.32856324	      0.00000000	     -0.00274898	      0.00000000	      0.00000000	      0.00000000	      0.00000000	      0.00000000	      0.00000000	      0.00000000	     -1.51091615	    -18.26835424	      0.82965704	      2.14336714
      0.94495000	      0.56641866	     -4.96055343	      3.32847520	      0.47616900	      1.05306281	      0.37872110	      5.78210924	      7.09842154	     -7.23896005	    -15.80277930	      9.55688983	     11.38736196	     11.73234732	     21.62494243	     -8.37205699	     -1.95896287	    -67.29861161	     -5.94100548	      1.44093723	     -4.01106687	      0.00000000	     -0.00240700	      0.00000000	      0.00000000	      0.00000000	      0.00000000	      0.00000000	      0.00000000	      0.00000000	     -1.49824263	    -18.17129584	      0.64462195	      2.21762439
      0.94913000	      0.55391153	     -4.92382283	      3.16526309	      0.48099008	      1.05375033	      0.37872451	      5.44303594	      7.04980086	     -7.23599429	    -15.73327494	      9.55583302	     11.43642873	     11.75003166	     22.10143928	     -8.25853852	     -1.88424091	    -66.80268394	     -6.21891620	      1.49675256	     -3.77186733	      0.00000000	     -0.00171065	      0.00000000	      0.00000000	      0.00000000	      0.00000000	      0.00000000	      0.00000000	      0.00000000	     -1.46889695	    -18.24880887	      0.62532207	      2.24971009
      0.95331000	      0.84968002	     -4.51112743	      3.01516010	      0.48666177	      1.05589090	      0.37895833	      4.34669428	      6.67728462	     -7.07352094	    -14.92154145	      9.12670390	     11.78781389	     12.61674935	     21.43136062	     -7.73022297	     -1.96296241	    -64.56761380	     -5.51223043	      1.55098616	     -3.66993541	      0.00000000	     -0.00403132	      0.00000000	      0.00000000	      0.00000000	      0.00000000	      0.00000000	      0.00000000	      0.00000000	     -1.47559113	    -18.52601613	     -0.01495915	      2.50641281
      0.95749000	      0.78216474	     -4.48862589	      2.94096449	      0.49163492	      1.05652535	      0.37892208	      3.94982800	      6.66175286	     -7.07071681	    -14.62060563	      9.12120827	     11.93783712	     12.66854639	     21.98274574	     -7.64453083	     -1.88991494	    -64.01947718	     -5.74798924	      1.53676218	     -3.38006634	      0.00000000	     -0.00301297	      0.00000000	      0.00000000	      0.00000000	      0.00000000	      0.00000000	      0.00000000	      0.00000000	     -1.47285078	    -18.51517149	     -0.08804260	      2.56283500
      0.96167000	      0.78281758	     -4.48868749	      2.78067299	      0.49638561	      1.05707547	      0.37892939	      3.63132434	      6.64601626	     -7.08677885	    -14.60424053	      9.12071190	     11.97652635	     12.67865629	     22.45767723	     -7.58323886	     -1.83065086	    -63.53663025	     -6.09049564	      1.57551761	     -3.22954770	      0.00000000	     -0.00197422	      0.00000000	      0.00000000	      0.00000000	      0.00000000	      0.00000000	      0.00000000	      0.00000000	     -1.42425406	    -18.56436416	     -0.09499820	      2.58587451
      0.96585000	      0.62110167	     -4.48244364	      2.77249592	      0.50162467	      1.05769293	      0.37886428	      3.17867496	      6.67452604	     -7.03903285	    -14.00035449	      9.05248344	     12.24686148	     12.72471211	     23.02250056	     -7.51678447	     -1.76610346	    -62.75078216	     -6.20716330	      1.48381599	     -2.86299125	      0.00000000	     -0.00117899	      0.00000000	      0.00000000	      0.00000000	      0.00000000	      0.00000000	      0.00000000	      0.00000000	     -1.46484868	    -18.43220988	     -0.21678303	      2.71567482
      0.97003000	      0.83484753	     -4.21273626	      2.50467454	      0.50722521	      1.05927661	      0.37909402	      2.31477653	      6.39551326	     -6.93720031	    -13.42083037	      8.55795173	     12.57879561	     13.70054559	     22.45125637	     -7.16432670	     -1.85896294	    -60.61308842	     -5.68140390	      1.60064827	     -2.92516829	      0.00000000	     -0.00309001	      0.00000000	      0.00000000	      0.00000000	      0.00000000	      0.00000000	      0.00000000	      0.00000000	     -1.37755604	    -18.50852621	     -0.60103736	      2.97904498
      0.97422000	      0.73112651	     -4.25225503	      2.40786200	      0.51232772	      1.05974154	      0.37905325	      1.94193701	      6.43996601	     -6.92128136	    -13.08323636	      8.44479195	     12.78641707	     13.77926420	     22.91857431	     -7.15567213	     -1.80807369	    -59.85793580	     -5.91728958	      1.56907684	     -2.69228407	      0.00000000	     -0.00232886	      0.00000000	      0.00000000	      0.00000000	      0.00000000	      0.00000000	      0.00000000	      0.00000000	     -1.36610928	    -18.34272924	     -0.61601431	      3.08837499
      0.97840000	      0.74163525	     -4.27594508	      2.26877091	      0.51695968	      1.06016327	      0.37900768	      1.65094650	      6.43855018	     -6.93552509	    -13.12058349	      8.44690253	     12.80872614	     13.78747261	     23.38117224	     -7.12501458	     -1.75863891	    -59.34820060	     -6.30518793	      1.57855953	     -2.61159179	      0.00000000	     -0.00099905	      0.00000000	      0.00000000	      0.00000000	      0.00000000	      0.00000000	      0.00000000	      0.00000000	     -1.30806210	    -18.40728266	     -0.61910445	      3.10705558
      0.98258000	      0.52468554	     -4.34808900	      2.22472106	      0.52225089	      1.06051135	      0.37894218	      1.27382027	      6.53922383	     -6.87232289	    -12.52849941	      8.37902222	     13.08134779	     13.84153259	     23.88285354	     -7.14756121	     -1.70613113	    -58.36154420	     -6.41488592	      1.49048027	     -2.32560829	      0.00000000	     -0.00053382	      0.00000000	      0.00000000	      0.00000000	      0.00000000	      0.00000000	      0.00000000	      0.00000000	     -1.32876022	    -18.25181186	     -0.64446001	      3.27115039
